<svg id="b" class="springone-logo" xmlns="http://www.w3.org/2000/svg" viewBox="0 0 2474.84 528.21">
    <defs>
        <style>.e{fill:#fff;}</style>
    </defs>
    <g id="c">
        <g>
            <g>
                <g id="d">
                    <g>
                        <path class="e"
                              d="M1225.82,0H198.45C89.02,0,0,89.02,0,198.44s89.02,198.45,198.45,198.45H1225.82c109.42,0,198.44-89.02,198.44-198.45S1335.24,0,1225.82,0Zm183.4,198.44c0,101.13-82.27,183.4-183.4,183.4H198.45c-101.12,0-183.4-82.27-183.4-183.4S97.32,15.05,198.45,15.05H1225.82c101.12,0,183.4,82.27,183.4,183.39Z"></path>
                        <path class="e"
                              d="M233.98,177.69c-30.41-7.21-37.62-12.61-37.62-24.78v-.45c0-10.36,9.46-18.7,25.68-18.7,12.39,0,24.11,4.06,36.27,11.94,2.25,1.36,4.51,2.03,7.21,2.03,7.21,0,13.07-5.63,13.07-12.85,0-5.4-2.93-9.24-6.08-11.04-14.2-9.46-30.19-14.64-50.01-14.64-31.31,0-53.85,18.7-53.85,45.73v.45c0,29.06,18.92,38.97,52.49,47.08,29.29,6.76,35.6,12.85,35.6,24.11v.45c0,11.71-10.81,19.82-27.93,19.82s-31.09-5.86-44.16-16.22c-1.8-1.35-4.28-2.48-8.11-2.48-7.21,0-13.07,5.63-13.07,12.84,0,4.51,2.25,8.34,5.41,10.59,17.57,13.06,37.84,19.82,59.25,19.82,33.11,0,56.31-17.58,56.31-47.09v-.45c0-26.13-17.12-38.07-50.46-46.18Z"></path>
                        <path class="e"
                              d="M370.49,147.73c-19.38,0-31.76,9.91-40.55,22.3v-7.44c0-7.66-6.09-13.74-13.74-13.74s-13.52,6.09-13.52,13.74v130.21c0,7.66,6.09,13.51,13.52,13.51s13.74-5.86,13.74-13.51v-42.13c8.33,11.04,20.73,20.95,40.55,20.95,28.16,0,55.19-22.3,55.19-61.73v-.45c0-39.64-27.26-61.72-55.19-61.72Zm27.49,62.17c0,23.43-15.32,38.07-34.02,38.07s-34.69-15.32-34.69-38.07v-.45c0-22.75,16.22-38.07,34.69-38.07s34.02,15.1,34.02,38.07v.45Z"></path>
                        <path class="e"
                              d="M499.8,148.63c-11.94,0-23.65,11.27-29.96,26.13v-12.16c0-7.66-6.09-13.74-13.74-13.74s-13.52,6.09-13.52,13.74v94.17c0,7.66,6.09,13.51,13.52,13.51s13.74-6.09,13.74-13.51v-35.14c0-28.16,13.29-43.03,32.66-46.41,6.09-1.13,10.81-5.86,10.81-13.07,0-7.88-4.96-13.51-13.51-13.51Z"></path>
                        <path class="e"
                              d="M539.44,104.93c-8.78,0-15.54,5.18-15.54,13.3v1.35c0,8.11,6.76,13.51,15.54,13.51s15.54-5.4,15.54-13.51v-1.35c0-8.12-6.76-13.3-15.54-13.3Z"></path>
                        <path class="e"
                              d="M539.44,148.85c-7.66,0-13.51,6.09-13.51,13.74v94.17c0,7.66,6.08,13.51,13.51,13.51s13.74-5.86,13.74-13.51v-94.17c0-7.66-6.09-13.74-13.74-13.74Z"></path>
                        <path class="e"
                              d="M641.94,147.73c-18.47,0-29.52,9.68-37.17,20.72v-5.86c0-7.66-6.08-13.74-13.74-13.74s-13.51,6.09-13.51,13.74v94.17c0,7.66,6.08,13.51,13.51,13.51s13.74-5.86,13.74-13.51v-54.74c0-18.47,11.04-29.52,26.81-29.52s25.46,10.59,25.46,29.07v55.19c0,7.66,6.08,13.51,13.74,13.51s13.51-5.86,13.51-13.51v-63.53c0-27.48-15.54-45.5-42.35-45.5Z"></path>
                        <path class="e"
                              d="M809.09,148.85c-7.43,0-13.51,6.09-13.51,13.52v5.63c-9.24-11.04-21.63-20.27-41.67-20.27-27.71,0-54.07,20.72-54.07,55.86v.45c0,34.92,26.13,55.65,54.07,55.65,19.6,0,31.99-9.01,41.9-21.85v9.24c0,23.88-13.29,36.49-37.62,36.49-13.74,0-25.68-3.38-36.49-9.46-1.36-.68-2.93-1.13-4.96-1.13-6.31,0-11.49,5.18-11.49,11.26,0,5.18,2.93,9.01,7.66,10.81,14.42,6.98,29.28,10.59,45.95,10.59,21.4,0,38.07-5.18,48.89-15.99,9.91-9.92,15.09-24.78,15.09-44.83v-82.23c0-7.66-6.08-13.74-13.74-13.74Zm-13.06,54.97c0,19.37-16,32.66-34.92,32.66s-33.79-13.29-33.79-32.66v-.45c0-19.6,14.86-32.67,33.79-32.67s34.92,13.29,34.92,32.67v.45Z"></path>
                        <path class="e"
                              d="M924.66,108.76c-48.43,0-82.67,37.17-82.67,81.55v.45c0,44.38,33.79,81.1,82.22,81.1s82.68-37.17,82.68-81.55v-.45c0-44.37-33.79-81.1-82.23-81.1Zm53.16,82c0,30.64-21.85,55.42-53.16,55.42s-53.62-25.23-53.62-55.87v-.45c0-30.64,21.85-55.64,53.16-55.64s53.62,25.46,53.62,56.09v.45Z"></path>
                        <path class="e"
                              d="M1090.46,147.73c-18.47,0-29.51,9.68-37.17,20.72v-5.86c0-7.66-6.09-13.74-13.74-13.74s-13.52,6.09-13.52,13.74v94.17c0,7.66,6.09,13.51,13.52,13.51s13.74-5.86,13.74-13.51v-54.74c0-18.47,11.04-29.52,26.8-29.52s25.46,10.59,25.46,29.07v55.19c0,7.66,6.09,13.51,13.74,13.51s13.52-5.86,13.52-13.51v-63.53c0-27.48-15.54-45.5-42.36-45.5Z"></path>
                        <path class="e"
                              d="M1206.02,147.73c-34.02,0-58.12,27.93-58.12,61.95v.45c0,36.72,26.58,61.73,61.04,61.73,18.47,0,31.99-6.09,42.81-15.77,2.02-2.02,3.6-4.95,3.6-8.33,0-6.31-4.73-11.04-10.81-11.04-3.15,0-4.95,.9-6.98,2.48-7.66,6.31-16.67,10.36-28.16,10.36-17.57,0-31.31-10.81-34.24-30.18h74.56c6.98,0,12.84-5.41,12.84-13.07,0-27.49-18.7-58.57-56.54-58.57Zm-31.09,53.61c2.48-18.47,14.2-31.31,30.87-31.31,18.02,0,28.38,13.74,30.18,31.31h-61.05Z"></path>
                    </g>
                </g>
                <g>
                    <path class="e"
                          d="M474.11,485.33c0,15.53-9.96,26.47-23.25,26.47-8.11,0-14.56-4.01-18.36-10.65v9.48h-7.33v-68.28h7.33v27.25c3.81-6.64,10.26-10.65,18.36-10.65,13.29,0,23.25,10.94,23.25,26.38Zm-7.72,0c0-11.62-7.03-19.83-16.9-19.83s-17,8.21-17,19.83,7.03,19.93,17,19.93,16.9-8.3,16.9-19.93Z"></path>
                    <path class="e"
                          d="M486.32,526.55l1.76-6.25c1.76,.88,3.81,1.27,5.96,1.27,3.22,0,5.37-1.07,7.33-4.49l2.93-6.25-21.98-50.7h8.11l17.68,42,16.7-42h7.91l-23.05,56.17c-3.52,8.6-8.4,11.82-15.34,11.92-2.93,0-5.67-.59-8.01-1.66Z"></path>
                    <path class="e"
                          d="M636.27,443.52l-29.6,67.11h-8.3l-29.6-67.11h8.3l25.5,57.73,25.4-57.73h8.3Z"></path>
                    <path class="e"
                          d="M648.58,443.52h7.62l24.91,46.79,24.91-46.79h7.62v67.11h-7.62v-50.7l-24.91,46.79-24.91-46.79v50.7h-7.62v-67.11Z"></path>
                    <path class="e"
                          d="M726.24,460.13h7.81l12.6,40.73,13.77-40.73h6.35l13.77,40.73,12.6-40.73h7.81l-17,50.5h-6.94l-13.38-40.34-13.58,40.34h-6.94l-16.9-50.5Z"></path>
                    <path class="e"
                          d="M852.65,479.86v30.77h-7.33v-7.91c-3.61,5.96-11.14,9.08-17.78,9.08-10.65,0-18.46-6.15-18.46-16.12s8.99-16.8,19.83-16.8c5.47,0,11.23,1.17,16.41,2.83v-1.86c0-6.84-2.74-14.65-13.68-14.65-5.08,0-10.16,2.25-14.75,4.59l-2.93-5.96c7.23-3.61,13.29-4.88,18.17-4.88,13.77,0,20.51,8.69,20.51,20.9Zm-7.33,14.95v-7.72c-4.59-1.27-9.77-2.05-15.24-2.05-7.52,0-13.87,4.3-13.87,10.35s5.47,9.96,12.6,9.96c6.64,0,14.56-3.42,16.51-10.55Z"></path>
                    <path class="e"
                          d="M895.14,458.95v6.55c-11.43,0-19.54,7.03-19.54,16.9v28.23h-7.33v-50.5h7.33v9.87c3.03-6.74,10.26-11.04,19.54-11.04Z"></path>
                    <path class="e"
                          d="M943.98,499.2l4.49,4.79c-4.4,4.79-13.29,7.81-20.32,7.81-13.48,0-25.59-11.04-25.59-26.57s11.33-26.28,24.91-26.28c15.24,0,23.93,11.53,23.93,29.21h-41.32c1.07,9.87,8.01,17.09,17.97,17.09,5.96,0,12.8-2.64,15.92-6.06Zm-33.8-17.58h33.99c-.98-9.08-6.35-16.12-16.41-16.12-8.99,0-16.22,6.35-17.58,16.12Z"></path>
                    <path class="e" d="M1011.29,450.75h-22.56v-7.23h52.75v7.23h-22.56v59.88h-7.62v-59.88Z"></path>
                    <path class="e"
                          d="M1094.32,479.86v30.77h-7.33v-7.91c-3.61,5.96-11.14,9.08-17.78,9.08-10.65,0-18.46-6.15-18.46-16.12s8.99-16.8,19.83-16.8c5.47,0,11.23,1.17,16.41,2.83v-1.86c0-6.84-2.74-14.65-13.68-14.65-5.08,0-10.16,2.25-14.75,4.59l-2.93-5.96c7.23-3.61,13.29-4.88,18.17-4.88,13.77,0,20.51,8.69,20.51,20.9Zm-7.33,14.95v-7.72c-4.59-1.27-9.77-2.05-15.24-2.05-7.52,0-13.87,4.3-13.87,10.35s5.47,9.96,12.6,9.96c6.64,0,14.56-3.42,16.51-10.55Z"></path>
                    <path class="e"
                          d="M1152.25,478.49v32.14h-7.33v-31.16c0-8.21-5.18-13.97-12.6-13.97-8.5,0-15.63,5.96-15.63,12.99v32.14h-7.33v-50.5h7.33v8.11c2.93-5.37,9.48-9.28,16.61-9.28,11.14,0,18.95,8.11,18.95,19.54Z"></path>
                    <path class="e"
                          d="M1164.95,504.87l29.79-37.8h-29.21v-6.94h39.07v5.76l-29.89,37.8h30.09v6.94h-39.86v-5.76Z"></path>
                    <path class="e"
                          d="M1260.19,460.13v50.5h-7.33v-8.11c-2.93,5.37-9.47,9.28-16.61,9.28-11.14,0-18.95-8.11-18.95-19.54v-32.14h7.33v31.16c0,8.21,5.18,13.97,12.6,13.97,8.5,0,15.63-5.96,15.63-12.99v-32.14h7.33Z"></path>
                </g>
            </g>
        </g>
    </g>
</svg>