<svg width="125" height="20" viewBox="0 0 125 20" fill="none" xmlns="http://www.w3.org/2000/svg">
<path d="M53.7027 17.6193L48.2222 2.40398C48.1454 2.1994 48.043 1.91811 48.043 1.66239C48.043 0.997517 48.6064 0.383789 49.4003 0.383789C50.0917 0.383789 50.5527 0.844085 50.7576 1.50896L55.3161 14.6018L59.8746 1.45781C60.0794 0.844085 60.5148 0.383789 61.2063 0.383789H61.3343C62.077 0.383789 62.5123 0.844085 62.7428 1.45781L67.2757 14.6018L71.8854 1.43224C72.0647 0.869657 72.4488 0.383789 73.1659 0.383789C73.9342 0.383789 74.4976 0.971945 74.4976 1.63682C74.4976 1.89254 74.3951 2.14826 74.3183 2.37841L68.8123 17.6193C68.5306 18.4121 67.9672 18.8212 67.3525 18.8212H67.2501C66.5586 18.8212 66.0208 18.4121 65.7903 17.6193L61.3087 4.67989L56.7758 17.6193C56.5453 18.4121 56.0075 18.8212 55.3161 18.8212H55.2392C54.5478 18.8212 53.9844 18.4121 53.7027 17.6193Z" fill="white"/>
<path d="M93.6025 1.71274C93.6025 0.97115 94.1916 0.357422 94.9342 0.357422C95.7025 0.357422 96.2915 0.945578 96.2915 1.71274V4.80695C97.6232 1.78945 100.543 0.382994 102.515 0.382994C103.309 0.382994 103.846 0.97115 103.846 1.73831C103.846 2.4799 103.36 2.99134 102.668 3.09363C99.1598 3.52835 96.2915 6.13669 96.2915 11.3278V17.4395C96.2915 18.1811 95.7281 18.7948 94.9598 18.7948C94.1916 18.7948 93.6025 18.2067 93.6025 17.4395V1.71274Z" fill="white"/>
<path d="M112.451 18.974C107.585 18.974 103.616 15.2149 103.616 9.69138V9.61467C103.616 4.4747 107.201 0.332031 112.092 0.332031C117.317 0.332031 120.313 4.6537 120.313 9.38452C120.313 10.1005 119.724 10.6375 119.084 10.6375H106.279C106.663 14.4989 109.352 16.6725 112.502 16.6725C114.705 16.6725 116.292 15.8031 117.599 14.6012C117.803 14.4222 118.034 14.2943 118.341 14.2943C118.981 14.2943 119.494 14.8058 119.494 15.4451C119.494 15.7519 119.366 16.0588 119.084 16.3145C117.47 17.9 115.473 18.974 112.451 18.974ZM117.701 8.64293C117.419 5.39529 115.575 2.5568 112.067 2.5568C108.994 2.5568 106.663 5.13957 106.33 8.64293H117.701Z" fill="white"/>
<path d="M74.5234 13.3999V13.3232C74.5234 9.53857 77.6478 7.51838 82.2063 7.51838C84.5111 7.51838 86.1502 7.82524 87.7379 8.28554V7.67181C87.7379 4.44974 85.7404 2.76199 82.3856 2.76199C80.5673 2.76199 79.5173 2.99213 78.1856 3.58029C78.0063 3.65701 77.8271 3.68258 77.699 3.68258C77.0588 3.68258 76.521 3.17114 76.521 2.53184C76.521 1.96925 76.7771 1.63682 77.2637 1.40667C79.0307 0.639509 80.3624 0.383789 82.6673 0.383789C85.2026 0.383789 87.1489 1.04866 88.4806 2.35283C89.7099 3.58029 90.3245 5.31919 90.3245 7.59509V17.517C90.3245 18.2842 89.7611 18.8468 89.044 18.8468C88.2757 18.8468 87.7636 18.2842 87.7636 17.5938V15.8804C86.5087 17.517 84.4087 18.9746 81.2587 18.9746C77.9039 19.0002 74.5234 17.0823 74.5234 13.3999ZM87.7892 11.9935V10.2546C86.4575 9.871 84.6904 9.48742 82.488 9.48742C79.1075 9.48742 77.238 10.945 77.238 13.2209V13.2977C77.238 15.548 79.338 16.8777 81.7709 16.8777C85.0745 16.8777 87.7892 14.8575 87.7892 11.9935Z" fill="white"/>
<path d="M4.91742 1.50875C4.3284 0.230148 2.86866 -0.358008 1.51136 0.230148C0.154053 0.843876 -0.358138 2.35262 0.256491 3.6568L5.96741 16.0592C6.86374 18.0027 7.8113 19.0256 9.57835 19.0256C11.4735 19.0256 12.293 17.926 13.2149 16.0592C13.2149 16.0592 18.2088 5.21669 18.26 5.1144C18.3112 4.98654 18.4648 4.65411 18.977 4.65411C19.4124 4.65411 19.7709 5.01211 19.7709 5.44684V16.0592C19.7709 17.6958 20.6673 19.0256 22.4343 19.0256C24.1758 19.0256 25.1233 17.6958 25.1233 16.0592V7.36474C25.1233 5.70256 26.327 4.60296 27.966 4.60296C29.605 4.60296 30.6806 5.72813 30.6806 7.36474V16.0336C30.6806 17.6703 31.6025 19 33.344 19C35.0854 19 36.033 17.6703 36.033 16.0336V7.36474C36.033 5.70256 37.2366 4.60296 38.8756 4.60296C40.5146 4.60296 41.5902 5.72813 41.5902 7.36474V16.0336C41.5902 17.6703 42.4866 19 44.2536 19C45.9951 19 46.9426 17.6703 46.9426 16.0336V6.16285C46.917 2.53163 43.9975 0 40.4634 0C36.9549 0 34.7525 2.42934 34.7525 2.42934C33.6001 0.920592 31.9867 0 29.2464 0C26.3782 0 23.8685 2.42934 23.8685 2.42934C22.6904 0.920592 20.6929 0 19.0539 0C16.4929 0 14.4698 1.12517 13.2405 3.93809L9.60396 12.5303L4.91742 1.50875Z" fill="white"/>
<path d="M120.543 2.58237C120.543 1.35491 121.517 0.332031 122.771 0.332031C124.026 0.332031 125 1.35491 125 2.5568C125 3.78425 124.026 4.80713 122.771 4.80713C121.517 4.80713 120.543 3.80982 120.543 2.58237ZM124.59 2.58237C124.59 1.58506 123.821 0.766755 122.797 0.766755C121.773 0.766755 121.004 1.58506 121.004 2.58237V2.60794C121.004 3.60525 121.773 4.42355 122.797 4.42355C123.796 4.39798 124.59 3.5541 124.59 2.58237Z" fill="white"/>
<path d="M121.927 1.68718C121.927 1.55932 122.029 1.45703 122.157 1.45703H122.9C123.182 1.45703 123.387 1.53375 123.54 1.68718C123.668 1.81504 123.719 1.96847 123.719 2.17305C123.719 2.50548 123.54 2.71006 123.284 2.83792L123.617 3.24707C123.668 3.29822 123.694 3.34936 123.694 3.42608C123.694 3.55394 123.591 3.65622 123.463 3.65622C123.361 3.65622 123.284 3.60508 123.233 3.52836L122.772 2.94021H122.413V3.4005C122.413 3.52836 122.311 3.63065 122.183 3.63065C122.055 3.63065 121.952 3.52836 121.952 3.4005V1.68718H121.927ZM122.874 2.50548C123.105 2.50548 123.233 2.37762 123.233 2.19862C123.233 1.99404 123.105 1.89176 122.874 1.89176H122.413V2.50548H122.874Z" fill="white"/>
</svg>
